<svg width="254" height="120" viewBox="0 0 254 120" fill="none" xmlns="http://www.w3.org/2000/svg">
   <path d="M6.86458 94.1354L3.86458 95.8646V54.1354L6.86458 55.8646V94.1354Z" fill="black"/>
   <path d="M14.401 90.6667H11.401V59.401H14.401V90.6667Z" fill="black"/>
   <path d="M40 113.266V116.734L3.86458 95.8646L6.86458 94.1354L40 113.266Z" fill="black"/>
   <path d="M73.1354 94.1354L76.1354 95.8646L40 116.734V113.266L73.1354 94.1354Z" fill="black"/>
   <path d="M66.3333 89.3333L67.8646 91.9323L40.7344 107.599L39.2656 104.932L66.3333 89.3333Z" fill="black"/>
   <path d="M73.1354 55.8646L74.6667 55L76.1354 55.8646V95.8646L73.1354 94.1354V55.8646Z" fill="black"/>
   <path d="M40 36.7344V33.2656L74.6667 53.2656V55L73.1354 55.8646L40 36.7344Z" fill="black"/>
   <path d="M39.2656 45.0677L40.7344 42.401L67.8646 58.0677L66.3333 60.6667L39.2656 45.0677Z" fill="black"/>
   <path d="M6.86458 55.8646L3.86458 54.1354L40 33.2656V36.7344L6.86458 55.8646Z" fill="black"/>
   <path d="M109.266 33.2656V36.7344L76.1354 55.8646L74.6667 55V53.2656L109.266 33.2656Z" fill="black"/>
   <path d="M143.932 53.2656V55L142.401 55.8646L109.266 36.7344V33.2656L143.932 53.2656Z" fill="black"/>
   <path d="M173.412 23.4667V6.19585H176.975V12.7792H183.725V6.19585H187.308V23.4667H183.725V15.7583H176.975V23.4667H173.412Z" fill="black"/>
   <path d="M173.371 26.3403H177.163L184.038 38.4028V26.3403H187.392V43.6111H183.788L176.725 31.3403V43.6111H173.371V26.3403Z" fill="black"/>
   <path d="M166.932 40L168.401 42.599L145.469 55.8646L143.932 55V53.2656L166.932 40Z" fill="black"/>
   <path d="M137.35 95.3C137.35 92.2896 138.152 89.9615 139.767 88.3208C141.168 86.9042 142.959 86.1958 145.142 86.1958C148.043 86.1958 150.168 87.149 151.517 89.05C152.251 90.1229 152.647 91.1958 152.704 92.2792H149.1C148.86 91.4458 148.564 90.8208 148.204 90.4042C147.537 89.6542 146.564 89.2792 145.287 89.2792C143.965 89.2792 142.923 89.8104 142.162 90.8625C141.412 91.9198 141.037 93.4198 141.037 95.3625C141.037 97.2948 141.433 98.7479 142.225 99.7167C143.027 100.675 144.048 101.154 145.287 101.154C146.548 101.154 147.517 100.748 148.183 99.925C148.558 99.4823 148.86 98.8156 149.1 97.925H152.683C152.36 99.8 151.558 101.331 150.267 102.508C148.985 103.691 147.34 104.279 145.329 104.279C142.855 104.279 140.902 103.482 139.475 101.883C138.058 100.29 137.35 98.0917 137.35 95.3Z" fill="black"/>
   <path d="M155.412 103.8V86.5292H158.974V93.1125H165.724V86.5292H169.308V103.8H165.724V96.0917H158.974V103.8H155.412Z" fill="black"/>
   <path d="M173.935 105.403C173.935 105.919 174.018 106.34 174.185 106.674C174.487 107.288 175.039 107.59 175.831 107.59C176.331 107.59 176.758 107.424 177.122 107.09C177.497 106.757 177.685 106.273 177.685 105.632C177.685 104.799 177.341 104.247 176.664 103.965C176.273 103.799 175.664 103.715 174.831 103.715V101.924C175.648 101.913 176.216 101.835 176.539 101.695C177.091 101.445 177.372 100.945 177.372 100.195C177.372 99.7102 177.227 99.3143 176.935 99.007C176.654 98.705 176.258 98.5487 175.747 98.5487C175.148 98.5487 174.711 98.7362 174.435 99.1112C174.154 99.4862 174.023 99.9862 174.039 100.611H171.706C171.716 99.9862 171.82 99.3925 172.018 98.8195C172.227 98.3195 172.549 97.8612 172.997 97.4445C173.315 97.1425 173.695 96.9133 174.143 96.757C174.602 96.5904 175.164 96.507 175.831 96.507C177.039 96.507 178.018 96.83 178.768 97.4654C179.518 98.0904 179.893 98.9341 179.893 99.9862C179.893 100.736 179.669 101.377 179.227 101.903C178.945 102.226 178.654 102.439 178.352 102.549C178.57 102.549 178.898 102.747 179.331 103.132C179.966 103.731 180.289 104.544 180.289 105.57C180.289 106.642 179.914 107.585 179.164 108.403C178.414 109.226 177.31 109.632 175.852 109.632C174.044 109.632 172.789 109.044 172.081 107.861C171.716 107.236 171.518 106.419 171.477 105.403H173.935Z" fill="black"/>
   <path d="M145.469 82.4688H142.401V55.8646L143.932 55L145.469 55.8646V82.4688Z" fill="black"/>
   <path d="M206.683 55.3C206.683 52.2896 207.485 49.9615 209.1 48.3208C210.501 46.9042 212.293 46.1958 214.475 46.1958C217.376 46.1958 219.501 47.149 220.85 49.05C221.584 50.1229 221.98 51.1958 222.038 52.2792H218.433C218.194 51.4458 217.897 50.8208 217.538 50.4042C216.871 49.6542 215.897 49.2792 214.621 49.2792C213.298 49.2792 212.256 49.8104 211.496 50.8625C210.746 51.9198 210.371 53.4198 210.371 55.3625C210.371 57.2948 210.767 58.7479 211.558 59.7167C212.36 60.675 213.381 61.1542 214.621 61.1542C215.881 61.1542 216.85 60.7479 217.517 59.925C217.892 59.4823 218.194 58.8156 218.433 57.925H222.017C221.694 59.8 220.892 61.3312 219.6 62.5083C218.319 63.6906 216.673 64.2792 214.663 64.2792C212.189 64.2792 210.235 63.4823 208.808 61.8833C207.392 60.2896 206.683 58.0917 206.683 55.3Z" fill="black"/>
   <path d="M224.745 63.8V46.5292H228.308V53.1125H235.058V46.5292H238.641V63.8H235.058V56.0917H228.308V63.8H224.745Z" fill="black"/>
   <path d="M243.268 65.4029C243.268 65.9185 243.352 66.3404 243.518 66.6737C243.82 67.2883 244.372 67.5904 245.164 67.5904C245.664 67.5904 246.091 67.4237 246.456 67.0904C246.831 66.757 247.018 66.2727 247.018 65.632C247.018 64.7987 246.675 64.2466 245.997 63.9654C245.607 63.7987 244.997 63.7154 244.164 63.7154V61.9237C244.982 61.9133 245.55 61.8352 245.872 61.6945C246.425 61.4445 246.706 60.9445 246.706 60.1945C246.706 59.7102 246.56 59.3143 246.268 59.007C245.987 58.705 245.591 58.5487 245.081 58.5487C244.482 58.5487 244.044 58.7362 243.768 59.1112C243.487 59.4862 243.357 59.9862 243.372 60.6112H241.039C241.05 59.9862 241.154 59.3925 241.352 58.8195C241.56 58.3195 241.883 57.8612 242.331 57.4445C242.649 57.1425 243.029 56.9133 243.477 56.757C243.935 56.5904 244.497 56.507 245.164 56.507C246.372 56.507 247.352 56.83 248.102 57.4654C248.852 58.0904 249.227 58.9341 249.227 59.9862C249.227 60.7362 249.003 61.3768 248.56 61.9029C248.279 62.2258 247.987 62.4393 247.685 62.5487C247.904 62.5487 248.232 62.7466 248.664 63.132C249.3 63.731 249.622 64.5435 249.622 65.5695C249.622 66.6425 249.247 67.5852 248.497 68.4029C247.747 69.2258 246.643 69.632 245.185 69.632C243.378 69.632 242.122 69.0435 241.414 67.8612C241.05 67.2362 240.852 66.4185 240.81 65.4029H243.268Z" fill="black"/>
   <path d="M204.469 48.1979L203 50.8646L191.401 44.1979L192.932 41.5312L204.469 48.1979Z" fill="black"/>
</svg>
